HIERARCHY
ROOT Hips
{
	OFFSET 0.000000 0.000000 0.000000
	CHANNELS 6 Xposition Yposition Zposition Zrotation Yrotation Xrotation 
	JOINT LHipJoint
	{
		OFFSET 0.000000 0.000000 0.000000
		CHANNELS 3 Zrotation Yrotation Xrotation
		JOINT LeftUpLeg
		{
			OFFSET 1.363060 -1.794630 0.839290
			CHANNELS 3 Zrotation Yrotation Xrotation
			JOINT LeftLeg
			{
				OFFSET 2.448110 -6.726130 0.000000
				CHANNELS 3 Zrotation Yrotation Xrotation
				JOINT LeftFoot
				{
					OFFSET 2.562200 -7.039590 0.000000
					CHANNELS 3 Zrotation Yrotation Xrotation
					JOINT LeftToeBase
					{
						OFFSET 0.157640 -0.433110 2.322550
						CHANNELS 3 Zrotation Yrotation Xrotation
						End Site
						{
							OFFSET 0.000000 0.000000 0.000000
						}
					}
				}
			}
		}
	}
	JOINT RHipJoint
	{
		OFFSET 0.000000 0.000000 0.000000
		CHANNELS 3 Zrotation Yrotation Xrotation
		JOINT RightUpLeg
		{
			OFFSET -1.305520 -1.794630 0.839290
			CHANNELS 3 Zrotation Yrotation Xrotation
			JOINT RightLeg
			{
				OFFSET -2.542530 -6.985550 0.000000
				CHANNELS 3 Zrotation Yrotation Xrotation
				JOINT RightFoot
				{
					OFFSET -2.568260 -7.056230 0.000000
					CHANNELS 3 Zrotation Yrotation Xrotation
					JOINT RightToeBase
					{
						OFFSET -0.164730 -0.452590 2.363150
						CHANNELS 3 Zrotation Yrotation Xrotation
						End Site
						{
							OFFSET 0.000000 0.000000 0.000000
						}
					}
				}
			}
		}
	}
	JOINT LowerBack
	{
		OFFSET 0.000000 0.000000 0.000000
		CHANNELS 3 Zrotation Yrotation Xrotation
		JOINT Spine
		{
			OFFSET 0.028270 2.035590 -0.193380
			CHANNELS 3 Zrotation Yrotation Xrotation
			JOINT Spine1
			{
				OFFSET 0.056720 2.048850 -0.042750
				CHANNELS 3 Zrotation Yrotation Xrotation
				JOINT Neck
				{
					OFFSET 0.000000 0.000000 0.000000
					CHANNELS 3 Zrotation Yrotation Xrotation
					JOINT Neck1
					{
						OFFSET -0.054170 1.746240 0.172020
						CHANNELS 3 Zrotation Yrotation Xrotation
						JOINT Head
						{
							OFFSET 0.104070 1.761360 -0.123970
							CHANNELS 3 Zrotation Yrotation Xrotation
							End Site
							{
								OFFSET 0.000000 0.000000 0.000000
							}
						}
					}
				}
				JOINT LeftShoulder
				{
					OFFSET 0.000000 0.000000 0.000000
					CHANNELS 3 Zrotation Yrotation Xrotation
					JOINT LeftArm
					{
						OFFSET 3.362410 1.200890 -0.311210
						CHANNELS 3 Zrotation Yrotation Xrotation
						JOINT LeftForeArm
						{
							OFFSET 4.983000 -0.000000 -0.000000
							CHANNELS 3 Zrotation Yrotation Xrotation
							JOINT LeftHand
							{
								OFFSET 3.483560 -0.000000 -0.000000
								CHANNELS 3 Zrotation Yrotation Xrotation
								JOINT LeftFingerBase
								{
									OFFSET 0.000000 0.000000 0.000000
									CHANNELS 3 Zrotation Yrotation Xrotation
									JOINT LeftHandIndex1
									{
										OFFSET 0.715260 -0.000000 -0.000000
										CHANNELS 3 Zrotation Yrotation Xrotation
										End Site
										{
											OFFSET 0.000000 0.000000 0.000000
										}
									}
								}
								JOINT LThumb
								{
									OFFSET 0.000000 0.000000 0.000000
									CHANNELS 3 Zrotation Yrotation Xrotation
									End Site
									{
										OFFSET 0.000000 0.000000 0.000000
									}
								}
							}
						}
					}
				}
				JOINT RightShoulder
				{
					OFFSET 0.000000 0.000000 0.000000
					CHANNELS 3 Zrotation Yrotation Xrotation
					JOINT RightArm
					{
						OFFSET -3.136600 1.374050 -0.404650
						CHANNELS 3 Zrotation Yrotation Xrotation
						JOINT RightForeArm
						{
							OFFSET -5.241900 -0.000000 -0.000000
							CHANNELS 3 Zrotation Yrotation Xrotation
							JOINT RightHand
							{
								OFFSET -3.444170 -0.000000 -0.000000
								CHANNELS 3 Zrotation Yrotation Xrotation
								JOINT RightFingerBase
								{
									OFFSET 0.000000 0.000000 0.000000
									CHANNELS 3 Zrotation Yrotation Xrotation
									JOINT RightHandIndex1
									{
										OFFSET -0.622530 -0.000000 -0.000000
										CHANNELS 3 Zrotation Yrotation Xrotation
										End Site
										{
											OFFSET 0.000000 0.000000 0.000000
										}
									}
								}
								JOINT RThumb
								{
									OFFSET 0.000000 0.000000 0.000000
									CHANNELS 3 Zrotation Yrotation Xrotation
									End Site
									{
										OFFSET 0.000000 0.000000 0.000000
									}
								}
							}
						}
					}
				}
			}
		}
	}
}
MOTION
Frames: 4
Frame Time: 0.008333
-10.334018 17.907036 -15.991423 176.051371 -10.792146 179.693875 -2.561238 1.764488 2.812939 -23.386004 -7.338088 -0.703862 -0.056051 6.099226 19.517262 0.687046 -13.857757 5.041177 0.211200 2.958900 8.164300 0.376011 -1.115016 0.598812 10.864079 0.081398 -28.049047 -5.047972 -13.901482 42.289982 1.729806 -10.407077 -3.422454 -0.097000 -2.008100 5.527900 -2.397838 0.840521 10.845186 1.438712 0.747140 2.657666 1.626679 0.212633 -3.996117 -11.209006 1.353008 -3.324194 5.563605 -5.667858 34.365868 3.647300 -5.982300 17.334100 -6.250846 -1.264466 -1.266747 -81.843398 -0.268815 25.000680 17.862880 -25.096739 -4.774557 -1.174847 -2.213060 4.568688 20.205878 22.456536 9.229100 -7.125000 0.000000 0.000000 -9.033400 56.056400 -2.464200 5.304609 1.283450 -0.865439 84.616032 -1.926895 2.429619 -15.314864 22.578504 -3.157219 0.342958 -0.060456 9.806866 -14.709897 4.322397 -1.160100 7.125000 0.000000 0.000000 8.714400 -25.500500 4.159300 
-10.340214 17.933317 -15.899789 176.083403 -10.509738 179.559436 -2.547190 1.750833 2.790084 -23.397715 -7.108192 -1.031741 -0.056137 6.107713 19.544093 0.661931 -13.673525 5.816569 0.313000 3.596800 9.945100 0.359369 -1.125774 0.611595 11.030707 -0.279694 -27.607000 -5.580500 -14.406829 44.395813 1.613968 -9.895110 -3.534567 -0.094900 -1.986400 5.468000 -2.315465 1.014327 10.769736 1.394441 0.980700 2.748545 1.451861 0.322046 -3.804701 -11.346102 1.134543 -3.830971 5.657350 -5.842690 34.365384 3.700900 -6.027200 17.529300 -6.283496 -1.241190 -1.268184 -81.799362 -0.196560 24.176063 17.519350 -24.649704 -4.581840 -1.190653 -2.206557 5.145025 19.958863 22.535805 9.138300 -7.125000 0.000000 0.000000 -9.337500 56.088800 -2.555600 5.309344 1.293567 -0.852690 84.422277 -1.320296 2.780651 -15.405633 22.713088 -3.197304 0.342927 -0.057879 9.522782 -14.691364 4.360676 -1.168600 7.125000 0.000000 0.000000 8.726400 -25.462600 4.173000 
-10.342113 17.960397 -15.807256 176.247480 -10.276716 179.409143 -2.536393 1.739697 2.770978 -23.224217 -6.919763 -1.397793 -0.049113 6.140991 19.637654 0.646030 -13.538530 6.591889 0.433400 4.224800 11.710100 0.346525 -1.140271 0.624671 11.364429 -0.623310 -27.067234 -6.050762 -14.814401 46.188684 1.536888 -9.557564 -3.424112 -0.085200 -1.882700 5.181500 -2.175089 1.131678 10.669604 1.393206 1.149497 2.822510 1.325784 0.402639 -3.632452 -11.360806 1.006884 -4.130903 5.613804 -5.879103 34.294806 3.679800 -6.013900 17.577400 -6.315052 -1.226097 -1.266519 -81.829662 -0.063317 23.133664 17.154672 -24.168406 -4.379695 -1.197221 -2.198191 5.705876 19.583604 22.541713 8.957900 -7.125000 0.000000 0.000000 -9.751200 56.016100 -2.653100 5.317080 1.288595 -0.844949 84.240777 -0.798957 3.228419 -15.537902 22.898475 -3.253574 0.347957 -0.049003 9.252918 -14.796028 4.197326 -1.131200 7.125000 0.000000 0.000000 8.655500 -25.636000 4.103000 
-10.344111 17.985379 -15.711525 176.359165 -10.122380 179.273179 -2.533189 1.724415 2.746489 -23.122607 -6.858908 -1.754332 -0.030319 6.205492 19.814333 0.641929 -13.430040 6.928719 0.411400 4.117100 11.406500 0.333212 -1.155924 0.643586 11.547420 -0.886537 -26.433440 -6.506781 -15.183079 47.889958 1.413780 -8.988962 -3.284021 -0.101600 -2.055500 5.659100 -2.120197 1.126481 10.565197 1.411030 1.147806 2.849159 1.311345 0.404594 -3.529008 -11.502676 1.036531 -4.236405 5.582977 -5.698799 34.216972 3.717300 -5.956100 17.535000 -6.342559 -1.202641 -1.270398 -81.912036 0.301732 21.939017 16.843599 -23.764331 -4.210108 -1.197522 -2.189699 6.181682 19.214617 22.495039 8.762100 -7.125000 0.000000 0.000000 -10.135600 55.889500 -2.727900 5.316585 1.272668 -0.841838 83.950053 -0.427866 4.001390 -15.708416 23.134611 -3.326741 0.356396 -0.048605 9.146456 -15.080747 4.220390 -1.160100 7.125000 0.000000 0.000000 8.434500 -25.608600 4.001400 
